<svg xmlns="http://www.w3.org/2000/svg" viewBox="0 0 60 60" role="img" aria-hidden="true">
  <rect width="60" height="60" fill="#EDF4EC"/>
  <path d="M6 60 C6 44 16 38 30 38 C44 38 54 44 54 60 Z" fill="#3A5028"/>
  <circle cx="30" cy="25" r="13" fill="#E3A876"/>
  
  <path d="M17 24 C15 24 14 21.5 15.5 20 C14.5 18 16.5 16 18 16.5 C18 14 21 12 23 13 C24.5 10 27.5 8.5 30 8.5 C32.5 8.5 35.5 10 37 13 C39 12 42 14 42 16.5 C43.5 16 45.5 18 44.5 20 C46 21.5 45 24 43 24 C43 19 37 15 30 15 C23 15 17 19 17 24 Z" fill="#3E2C23"/>
  
</svg>
